<svg xmlns="http://www.w3.org/2000/svg" xmlns:xlink="http://www.w3.org/1999/xlink" preserveAspectRatio="xMidYMid" width="19.904" height="20.992" viewBox="0 0 128 135">
  <defs>
    <style>
      .cls-1 {
        fill: #fff;
        fill-rule: evenodd;
      }
    </style>
  </defs>
  <path d="M65.237,0.685 L85.062,12.559 L108.114,14.196 L77.671,36.015 L65.237,0.685 Z" class="cls-1"/>
  <path d="M127.730,106.364 L106.961,116.500 L93.013,134.926 L91.337,97.509 L127.730,106.364 Z" class="cls-1"/>
  <path d="M13.394,112.115 L11.937,89.051 L0.217,69.134 L35.450,81.843 L13.394,112.115 Z" class="cls-1"/>
  <path d="M67.500,93.000 C55.074,93.000 45.000,82.926 45.000,70.500 C45.000,58.074 55.074,48.000 67.500,48.000 C79.926,48.000 90.000,58.074 90.000,70.500 C90.000,82.926 79.926,93.000 67.500,93.000 ZM72.000,67.000 C65.925,67.000 61.000,71.925 61.000,78.000 C61.000,84.075 65.925,89.000 72.000,89.000 C78.075,89.000 83.000,84.075 83.000,78.000 C83.000,71.925 78.075,67.000 72.000,67.000 Z" class="cls-1"/>
</svg>
